# xmcd
#
# Track frame offsets: 
#        150
#        18523
#        36988
#        56376
#        78676
#        96081
#        111514
#        125789
#        141749
#        160277
#        180969
#        201899
#
# Disc length: 3043 seconds
#
# Revision: 1
# Processed by: cddbd v1.5.2PL0 Copyright (c) Steve Scherf et al.
# Submitted via: ExactAudioCopy v1.0b3
#
DISCID=af0be10c
DTITLE=Billy Cox - Old School Blue Blues
DYEAR=2011
DGENRE=Blues
TTITLE0=Rockin And Rollin On
TTITLE1=Old School Blue Blues
TTITLE2=I'mma Pilgrim
TTITLE3=Woke Up With That
TTITLE4=You Can't Tell
TTITLE5=The Last Gypsy Standing
TTITLE6=A Day Late And A Dollor Short
TTITLE7=A Special Kind Of Woman
TTITLE8=Train Stops Here
TTITLE9=Mamacita
TTITLE10=The Magic Of Dance
TTITLE11=Rockin And Rolli' On - Part II
EXTD=
EXTT0=
EXTT1=
EXTT2=
EXTT3=
EXTT4=
EXTT5=
EXTT6=
EXTT7=
EXTT8=
EXTT9=
EXTT10=
EXTT11=
PLAYORDER=
